# xmcd CD database file
#
# Track frame offsets:
#	150
#	50902
#	82857
#	139957
#	184442
#
# Disc length: 3858 seconds
#
# Revision: 0
# Processed by: cddbd v1.5.2PL0 Copyright (c) Steve Scherf et al.
# Submitted via: CDex 1.51
#
DISCID=460f1005
DTITLE=Don Cherry - Live At The Montmartre Vol. I
DYEAR=1900
DGENRE=Jazz
TTITLE0=Cocktail Of Compositions By Don Cherry and Ornette Coleman
TTITLE1=Dios E Diablo
TTITLE2=Complete Communion
TTITLE3=Music Man
TTITLE4=Rememberance
EXTD=
EXTT0=
EXTT1=
EXTT2=
EXTT3=
EXTT4=
PLAYORDER=
